<svg width="64" height="64" viewBox="0 0 64 64" fill="none" xmlns="http://www.w3.org/2000/svg">
  <defs>
    <linearGradient id="calendar-blue" x1="12" y1="10" x2="52" y2="54" gradientUnits="userSpaceOnUse">
      <stop stop-color="#7bb4ff"/>
      <stop offset=".55" stop-color="#1a73e8"/>
      <stop offset="1" stop-color="#0b57d0"/>
    </linearGradient>
  </defs>
  <rect x="11" y="10" width="42" height="44" rx="10" fill="url(#calendar-blue)"/>
  <path d="M11 24h42v20c0 5.5-4.5 10-10 10H21c-5.5 0-10-4.5-10-10V24Z" fill="#fff"/>
  <path d="M23.7 42.9c1.7 1.3 3.8 1.9 6.2 1.9 4.4 0 7.3-2.2 7.3-5.6 0-2.2-1.2-3.8-3.4-4.5 1.8-.8 2.8-2.2 2.8-4.1 0-3.1-2.5-5.1-6.6-5.1-2.3 0-4.3.6-6 1.9l1.7 3.1c1.1-.8 2.4-1.2 3.8-1.2 1.7 0 2.6.7 2.6 1.9s-.9 1.9-2.7 1.9H27v3.4h2.7c2 0 3 .7 3 2s-1.1 2.1-3.1 2.1c-1.5 0-3-.5-4.1-1.4l-1.8 3.7Z" fill="#1a73e8"/>
  <path d="M42.6 44.4V26h-3.4l-5 3.4 1.7 3 2.4-1.5v13.5h4.3Z" fill="#1a73e8"/>
</svg>
