<svg width="64" height="64" viewBox="0 0 64 64" fill="none" xmlns="http://www.w3.org/2000/svg">
  <defs>
    <linearGradient id="drive-green" x1="16" y1="12" x2="32" y2="42" gradientUnits="userSpaceOnUse">
      <stop stop-color="#46d36b"/>
      <stop offset="1" stop-color="#188038"/>
    </linearGradient>
    <linearGradient id="drive-yellow" x1="30" y1="10" x2="52" y2="36" gradientUnits="userSpaceOnUse">
      <stop stop-color="#ffe15a"/>
      <stop offset="1" stop-color="#fbbc04"/>
    </linearGradient>
    <linearGradient id="drive-blue" x1="20" y1="44" x2="56" y2="52" gradientUnits="userSpaceOnUse">
      <stop stop-color="#6ea8ff"/>
      <stop offset="1" stop-color="#1a73e8"/>
    </linearGradient>
  </defs>
  <path d="M24.4 12.5c1-1.8 2.9-2.9 5-2.9h5.2c2.1 0 4 1.1 5 2.9l16.2 28c1 1.8 1 4 0 5.8l-2.6 4.5c-1 1.8-2.9 2.9-5 2.9H15.8c-2.1 0-4-1.1-5-2.9l-2.6-4.5c-1-1.8-1-4 0-5.8l16.2-28Z" fill="#fff"/>
  <path d="M26.6 11.1 8.7 42.2 20.3 42 38.2 10.4h-8.8c-1.1 0-2.2.2-2.8.7Z" fill="url(#drive-green)"/>
  <path d="M37.4 10.5 55.3 41.7 43.8 42 25.8 10.4h8.8c1.1 0 2.2.2 2.8.1Z" fill="url(#drive-yellow)"/>
  <path d="M8.8 42.2 14 51.3c.8 1.4 2.4 2.3 4 2.3h30c1.6 0 3.2-.9 4-2.3l4.8-8.6-13-.7H20.3l-11.5.2Z" fill="url(#drive-blue)"/>
  <path d="M25.8 41.8 32 30.9l6.2 10.9H25.8Z" fill="#fff"/>
</svg>
