<svg width="64" height="64" viewBox="0 0 64 64" fill="none" xmlns="http://www.w3.org/2000/svg">
  <defs>
    <linearGradient id="gmail-red" x1="8" y1="18" x2="28" y2="54" gradientUnits="userSpaceOnUse">
      <stop stop-color="#ff6d5f"/>
      <stop offset="1" stop-color="#ea4335"/>
    </linearGradient>
    <linearGradient id="gmail-blue" x1="56" y1="18" x2="36" y2="54" gradientUnits="userSpaceOnUse">
      <stop stop-color="#6aa7ff"/>
      <stop offset="1" stop-color="#1a73e8"/>
    </linearGradient>
    <linearGradient id="gmail-yellow" x1="20" y1="18" x2="44" y2="36" gradientUnits="userSpaceOnUse">
      <stop stop-color="#fbbc04"/>
      <stop offset="1" stop-color="#fdd663"/>
    </linearGradient>
    <linearGradient id="gmail-green" x1="46" y1="28" x2="56" y2="54" gradientUnits="userSpaceOnUse">
      <stop stop-color="#34a853"/>
      <stop offset="1" stop-color="#0f9d58"/>
    </linearGradient>
  </defs>
  <rect x="7" y="14" width="50" height="38" rx="10" fill="#fff"/>
  <path d="M12 24.5c0-4.1 4.8-6.3 7.9-3.7L32 31.1 44.1 20.8c3.1-2.6 7.9-.4 7.9 3.7v22.2c0 2.9-2.4 5.3-5.3 5.3h-4.3V32.1L32 41 21.6 32.1V52h-4.3c-2.9 0-5.3-2.4-5.3-5.3V24.5Z" fill="#fff"/>
  <path d="M12 24.6c0-4.2 5-6.4 8.1-3.6l1.5 1.3V52h-4.3c-2.9 0-5.3-2.4-5.3-5.3V24.6Z" fill="url(#gmail-red)"/>
  <path d="M52 24.6c0-4.2-5-6.4-8.1-3.6l-1.5 1.3V52h4.3c2.9 0 5.3-2.4 5.3-5.3V24.6Z" fill="url(#gmail-blue)"/>
  <path d="M19.9 21 32 31.3 44.1 21c1.7-1.4 4.1-1.2 5.8.2L32 41 14.1 21.2c1.7-1.4 4.1-1.6 5.8-.2Z" fill="url(#gmail-yellow)"/>
  <path d="M42.4 22.3 32 31.3 42.4 40.2V22.3Z" fill="url(#gmail-green)" opacity=".95"/>
</svg>
